<svg aria-hidden="true" style="width:0;height:0;position:absolute;overflow:hidden" xmlns="http://www.w3.org/2000/svg"><defs><symbol id="icon-arrow-left" viewBox="0 0 32 32"><path d="m12.586 27.414-10-10a2 2 0 0 1 0-2.828l10-10a2 2 0 1 1 2.828 2.828L8.828 14H28a2 2 0 1 1 0 4H8.828l6.586 6.586c.39.39.586.902.586 1.414s-.195 1.024-.586 1.414a2 2 0 0 1-2.828 0z"/></symbol><symbol id="icon-arrow-right" viewBox="0 0 32 32"><path d="m19.414 27.414 10-10a2 2 0 0 0 0-2.828l-10-10a2 2 0 1 0-2.828 2.828L23.172 14H4a2 2 0 1 0 0 4h19.172l-6.586 6.586c-.39.39-.586.902-.586 1.414s.195 1.024.586 1.414a2 2 0 0 0 2.828 0z"/></symbol><symbol id="icon-filmoteka" viewBox="0 0 32 32"><path fill="none" stroke="#818181" style="stroke:var(--color1,#818181)" stroke-linejoin="round" stroke-linecap="round" stroke-width="2.667" d="M26.427 2.667H5.574a2.907 2.907 0 0 0-2.907 2.907v20.853a2.907 2.907 0 0 0 2.907 2.907h20.853a2.907 2.907 0 0 0 2.907-2.907V5.574a2.907 2.907 0 0 0-2.907-2.907zM9.333 2.667v26.667M22.667 2.667v26.667M2.667 16h26.667M2.667 9.333h6.667M2.667 22.667h6.667M22.667 22.667h6.667M22.667 9.333h6.667"/></symbol><symbol id="icon-heart" viewBox="0 0 32 32"><path fill="#ff6b08" style="fill:var(--color2,#ff6b08)" d="m16 30.583-2.24-2.24C5.44 20.983 0 16.023 0 9.943c0-4.96 3.84-8.8 8.8-8.8 2.72 0 5.44 1.28 7.2 3.36 1.76-2.08 4.48-3.36 7.2-3.36 4.96 0 8.8 3.84 8.8 8.8 0 6.08-5.44 11.04-13.76 18.4L16 30.583z"/></symbol><symbol id="icon-search" viewBox="0 0 32 32"><path fill="none" stroke="#fff" style="stroke:var(--color3,#fff)" stroke-linejoin="round" stroke-linecap="round" stroke-width="2.667" d="M14.667 25.333c5.891 0 10.667-4.776 10.667-10.667S20.558 3.999 14.667 3.999 4 8.775 4 14.666s4.776 10.667 10.667 10.667zM28 28.001l-5.8-5.8"/></symbol><symbol id="icon-search" viewBox="0 0 32 32"><path fill="none" stroke="#fff" style="stroke:var(--color3,#fff)" stroke-linejoin="round" stroke-linecap="round" stroke-width="2.667" d="M14.667 25.333c5.891 0 10.667-4.776 10.667-10.667S20.558 3.999 14.667 3.999 4 8.775 4 14.666s4.776 10.667 10.667 10.667zM28 28.001l-5.8-5.8"/></symbol><symbol id="icon-close-button" viewBox="0 0 32 32"><path style="stroke:var(--color3,#000)" stroke-width="2.133" d="m8.533 8.533 14.933 14.933M8.533 23.467 23.466 8.534"/></symbol><symbol id="icon-github" viewBox="0 0 32 32"><path d="M16 1.275C7.671 1.289.925 8.044.925 16.375c0 6.631 4.274 12.264 10.218 14.294l.106.032c.75.15 1-.325 1-.75v-2.8c-4.2.925-5.1-1.75-5.1-1.75-.675-1.75-1.675-2.25-1.675-2.25-1.375-.925.1-.9.1-.9 1.5.1 2.325 1.55 2.325 1.55 1.35 2.325 3.525 1.65 4.375 1.25.15-.95.55-1.625.975-2-3.35-.375-6.875-1.675-6.875-7.475 0-1.65.575-3 1.55-4.05-.15-.375-.675-1.9.15-4 0 0 1.25-.4 4.15 1.55 1.132-.318 2.432-.501 3.775-.501s2.643.183 3.877.525l-.102-.024c2.9-1.95 4.15-1.55 4.15-1.55.825 2.1.3 3.625.15 4 .975 1.075 1.55 2.4 1.55 4.05 0 5.8-3.525 7.075-6.875 7.45.525.5 1 1.4 1 2.8v4.175c0 .4.25.875 1.025.725 6.131-2.014 10.48-7.687 10.48-14.376 0-8.339-6.761-15.1-15.1-15.1l-.163.001h.008z"/><path d="M6.625 22.95c-.025.075-.15.1-.25.05-.125-.05-.175-.15-.15-.25.025-.05.15-.075.25-.025.125.05.175.15.15.25zm.6.675c-.075.075-.2.05-.3-.05-.1-.125-.125-.25-.05-.325s.225-.025.325.075.1.25.025.3zm.625.875c-.125.075-.25 0-.35-.125s-.1-.3 0-.35c.075-.075.25 0 .325.125.1.125.1.275 0 .35zm.8.85c-.1.075-.25.05-.4-.075-.125-.1-.175-.275-.075-.375.075-.1.25-.075.375.05.15.125.175.3.1.4zm1.125.5c-.05.1-.225.15-.375.1-.175-.05-.3-.175-.25-.3.025-.125.2-.175.375-.125s.275.175.25.3zm1.25.075c0 .125-.15.225-.35.225-.175 0-.325-.1-.325-.225s.15-.225.325-.225c.175 0 .325.1.325.225zm1.125-.2c.025.125-.1.25-.275.275-.175.05-.35-.05-.375-.15 0-.125.125-.25.3-.3.175 0 .325.05.35.175z"/></symbol></defs></svg>