<svg aria-hidden="true" style="position: absolute; width: 0; height: 0; overflow: hidden;" version="1.1"
  xmlns="http://www.w3.org/2000/svg" xmlns:xlink="http://www.w3.org/1999/xlink">
  <defs>
    <symbol id="icon-arrow-left" viewBox="0 0 32 32">
      <path
        d="M12.586 27.414l-10-10c-0.781-0.781-0.781-2.047 0-2.828l10-10c0.781-0.781 2.047-0.781 2.828 0s0.781 2.047 0 2.828l-6.586 6.586h19.172c1.105 0 2 0.895 2 2s-0.895 2-2 2h-19.172l6.586 6.586c0.39 0.39 0.586 0.902 0.586 1.414s-0.195 1.024-0.586 1.414c-0.781 0.781-2.047 0.781-2.828 0z">
      </path>
    </symbol>
    <symbol id="icon-arrow-right" viewBox="0 0 32 32">
      <path
        d="M19.414 27.414l10-10c0.781-0.781 0.781-2.047 0-2.828l-10-10c-0.781-0.781-2.047-0.781-2.828 0s-0.781 2.047 0 2.828l6.586 6.586h-19.172c-1.105 0-2 0.895-2 2s0.895 2 2 2h19.172l-6.586 6.586c-0.39 0.39-0.586 0.902-0.586 1.414s0.195 1.024 0.586 1.414c0.781 0.781 2.047 0.781 2.828 0z">
      </path>
    </symbol>
    <symbol id="icon-filmoteka" viewBox="0 0 32 32">
      <path fill="none" stroke="#818181" style="stroke: var(--color1, #818181)" stroke-linejoin="round"
        stroke-linecap="round" stroke-miterlimit="4" stroke-width="2.6667"
        d="M26.427 2.667h-20.853c-1.605 0-2.907 1.301-2.907 2.907v20.853c0 1.605 1.301 2.907 2.907 2.907h20.853c1.605 0 2.907-1.301 2.907-2.907v-20.853c0-1.605-1.301-2.907-2.907-2.907z">
      </path>
      <path fill="none" stroke="#818181" style="stroke: var(--color1, #818181)" stroke-linejoin="round"
        stroke-linecap="round" stroke-miterlimit="4" stroke-width="2.6667" d="M9.333 2.667v26.667"></path>
      <path fill="none" stroke="#818181" style="stroke: var(--color1, #818181)" stroke-linejoin="round"
        stroke-linecap="round" stroke-miterlimit="4" stroke-width="2.6667" d="M22.667 2.667v26.667"></path>
      <path fill="none" stroke="#818181" style="stroke: var(--color1, #818181)" stroke-linejoin="round"
        stroke-linecap="round" stroke-miterlimit="4" stroke-width="2.6667" d="M2.667 16h26.667"></path>
      <path fill="none" stroke="#818181" style="stroke: var(--color1, #818181)" stroke-linejoin="round"
        stroke-linecap="round" stroke-miterlimit="4" stroke-width="2.6667" d="M2.667 9.333h6.667"></path>
      <path fill="none" stroke="#818181" style="stroke: var(--color1, #818181)" stroke-linejoin="round"
        stroke-linecap="round" stroke-miterlimit="4" stroke-width="2.6667" d="M2.667 22.667h6.667"></path>
      <path fill="none" stroke="#818181" style="stroke: var(--color1, #818181)" stroke-linejoin="round"
        stroke-linecap="round" stroke-miterlimit="4" stroke-width="2.6667" d="M22.667 22.667h6.667"></path>
      <path fill="none" stroke="#818181" style="stroke: var(--color1, #818181)" stroke-linejoin="round"
        stroke-linecap="round" stroke-miterlimit="4" stroke-width="2.6667" d="M22.667 9.333h6.667"></path>
    </symbol>
    <symbol id="icon-heart" viewBox="0 0 32 32">
      <path fill="#ff6b08" style="fill: var(--color2, #ff6b08)"
        d="M16 30.583l-2.24-2.24c-8.32-7.36-13.76-12.32-13.76-18.4 0-4.96 3.84-8.8 8.8-8.8 2.72 0 5.44 1.28 7.2 3.36 1.76-2.080 4.48-3.36 7.2-3.36 4.96 0 8.8 3.84 8.8 8.8 0 6.080-5.44 11.040-13.76 18.4l-2.24 2.24z">
      </path>
    </symbol>
    <symbol id="icon-search" viewBox="0 0 32 32">
      <path fill="none" stroke="#fff" style="stroke: var(--color3, #fff)" stroke-linejoin="round" stroke-linecap="round"
        stroke-miterlimit="4" stroke-width="2.6667"
        d="M14.667 25.333c5.891 0 10.667-4.776 10.667-10.667s-4.776-10.667-10.667-10.667c-5.891 0-10.667 4.776-10.667 10.667s4.776 10.667 10.667 10.667z">
      </path>
      <path fill="none" stroke="#fff" style="stroke: var(--color3, #fff)" stroke-linejoin="round" stroke-linecap="round"
        stroke-miterlimit="4" stroke-width="2.6667" d="M28 28.001l-5.8-5.8"></path>
    </symbol>
    <symbol id="icon-search" viewBox="0 0 32 32">
      <path fill="none" stroke="#fff" style="stroke: var(--color3, #fff)" stroke-linejoin="round" stroke-linecap="round"
        stroke-miterlimit="4" stroke-width="2.6667"
        d="M14.667 25.333c5.891 0 10.667-4.776 10.667-10.667s-4.776-10.667-10.667-10.667c-5.891 0-10.667 4.776-10.667 10.667s4.776 10.667 10.667 10.667z">
      </path>
      <path fill="none" stroke="#fff" style="stroke: var(--color3, #fff)" stroke-linejoin="round" stroke-linecap="round"
        stroke-miterlimit="4" stroke-width="2.6667" d="M28 28.001l-5.8-5.8"></path>
    </symbol>
    <symbol id="icon-close-button" viewBox="0 0 32 32">
      <path fill="#000" style="stroke: var(--color3, #000)" stroke-linejoin="miter" stroke-linecap="butt"
        stroke-miterlimit="4" stroke-width="2.1333" d="M8.533 8.533l14.933 14.933"></path>
      <path fill="#000" style="stroke: var(--color3, #000)" stroke-linejoin="miter" stroke-linecap="butt"
        stroke-miterlimit="4" stroke-width="2.1333" d="M8.533 23.467l14.933-14.933"></path>
    </symbol>
    <symbol id="icon-github" viewBox="0 0 32 32">
      <path
        d="M16 1.275c-8.329 0.014-15.075 6.769-15.075 15.1 0 6.631 4.274 12.264 10.218 14.294l0.106 0.032c0.75 0.15 1-0.325 1-0.75v-2.8c-4.2 0.925-5.1-1.75-5.1-1.75-0.675-1.75-1.675-2.25-1.675-2.25-1.375-0.925 0.1-0.9 0.1-0.9 1.5 0.1 2.325 1.55 2.325 1.55 1.35 2.325 3.525 1.65 4.375 1.25 0.15-0.95 0.55-1.625 0.975-2-3.35-0.375-6.875-1.675-6.875-7.475 0-1.65 0.575-3 1.55-4.050-0.15-0.375-0.675-1.9 0.15-4 0 0 1.25-0.4 4.15 1.55 1.132-0.318 2.432-0.501 3.775-0.501s2.643 0.183 3.877 0.525l-0.102-0.024c2.9-1.95 4.15-1.55 4.15-1.55 0.825 2.1 0.3 3.625 0.15 4 0.975 1.075 1.55 2.4 1.55 4.050 0 5.8-3.525 7.075-6.875 7.45 0.525 0.5 1 1.4 1 2.8v4.175c0 0.4 0.25 0.875 1.025 0.725 6.131-2.014 10.48-7.687 10.48-14.376 0-8.339-6.761-15.1-15.1-15.1-0.054 0-0.109 0-0.163 0.001l0.008-0z">
      </path>
      <path
        d="M6.625 22.95c-0.025 0.075-0.15 0.1-0.25 0.050-0.125-0.050-0.175-0.15-0.15-0.25 0.025-0.050 0.15-0.075 0.25-0.025 0.125 0.050 0.175 0.15 0.15 0.25zM7.225 23.625c-0.075 0.075-0.2 0.050-0.3-0.050-0.1-0.125-0.125-0.25-0.050-0.325s0.225-0.025 0.325 0.075 0.1 0.25 0.025 0.3zM7.85 24.5c-0.125 0.075-0.25 0-0.35-0.125s-0.1-0.3 0-0.35c0.075-0.075 0.25 0 0.325 0.125 0.1 0.125 0.1 0.275 0 0.35zM8.65 25.35c-0.1 0.075-0.25 0.050-0.4-0.075-0.125-0.1-0.175-0.275-0.075-0.375 0.075-0.1 0.25-0.075 0.375 0.050 0.15 0.125 0.175 0.3 0.1 0.4zM9.775 25.85c-0.050 0.1-0.225 0.15-0.375 0.1-0.175-0.050-0.3-0.175-0.25-0.3 0.025-0.125 0.2-0.175 0.375-0.125s0.275 0.175 0.25 0.3zM11.025 25.925c0 0.125-0.15 0.225-0.35 0.225-0.175 0-0.325-0.1-0.325-0.225s0.15-0.225 0.325-0.225c0.175 0 0.325 0.1 0.325 0.225zM12.15 25.725c0.025 0.125-0.1 0.25-0.275 0.275-0.175 0.050-0.35-0.050-0.375-0.15 0-0.125 0.125-0.25 0.3-0.3 0.175 0 0.325 0.050 0.35 0.175z">
      </path>
    </symbol>
  </defs>
</svg>